<svg id="Layer_1" data-name="Layer 1" xmlns="http://www.w3.org/2000/svg" xmlns:xlink="http://www.w3.org/1999/xlink" viewBox="0 0 263.49 257.36"><defs><style>.cls-1{fill:url(#linear-gradient);}.cls-2{fill:url(#linear-gradient-2);}</style><linearGradient id="linear-gradient" x1="244.99" y1="125.78" x2="-27.69" y2="130.38" gradientUnits="userSpaceOnUse"><stop offset="0" stop-color="#8852a1"/><stop offset="0.18" stop-color="#996795"/><stop offset="0.56" stop-color="#c59c77"/><stop offset="1" stop-color="#fee250"/></linearGradient><linearGradient id="linear-gradient-2" x1="245.44" y1="151.99" x2="-27.24" y2="156.58" xlink:href="#linear-gradient"/></defs><title>logo</title><path class="cls-1" d="M190.58,34.89h4a68.31,68.31,0,0,1,41.69,13.56V92.66h-1a78.84,78.84,0,0,0-42.7-12.56q-23.24,0-65.31,15.07-.5,3.39-39.68,125.08H45.91l-1-.5L81.07,106.22H70.52A68.31,68.31,0,0,1,28.83,92.66V48.45h1A78.81,78.81,0,0,0,72.53,61q24,0,84.9-21.1Q178.4,34.89,190.58,34.89Z"/><path class="cls-2" d="M150.68,107.6h56.16c.35,0,.53.22.53.53v21.62q0,6.66-.53,12.92h12.92c.35,0,.53.22.53.53v21.35a.47.47,0,0,1-.53.53H203.68q-3.63,15-7.12,20.83-7.84,13.18-17.93,13.18H150.68a.46.46,0,0,1-.53-.52V177.21c0-.35.22-.53.53-.53H163.6q12.66,0,15-11.6h-15a.47.47,0,0,1-.53-.53V143.2c0-.36.22-.53.53-.53h19.25q.53-9.88.52-12.66H150.68a.47.47,0,0,1-.53-.53V108.13C150.19,107.78,150.37,107.6,150.68,107.6Z"/></svg>