<svg id="Layer_1" data-name="Layer 1" xmlns="http://www.w3.org/2000/svg" viewBox="0 0 840.83 216.51"><defs><style>.cls-1{fill:#fff;}</style></defs><title>title</title><path class="cls-1" d="M47,124.69l30.71-5.53q3.87,13,19.9,13,12.47,0,12.47-6.63a6.16,6.16,0,0,0-2.88-5.41q-2.88-1.94-10.3-3.43-28.35-5.43-36.4-14.2A29.5,29.5,0,0,1,52.42,81.9,32.27,32.27,0,0,1,64,56.55Q75.56,46.44,97.27,46.44q32.92,0,43.51,26.45l-27.4,8.29q-4.26-10.82-17.29-10.81-10.83,0-10.82,6.71a5.32,5.32,0,0,0,2.45,4.66q2.44,1.65,9.47,3.15,19.35,4.1,27.49,7.24a29.66,29.66,0,0,1,13.57,10.77,30.1,30.1,0,0,1,5.45,18q0,16.37-13.27,26.51T95.61,157.53Q56.22,157.53,47,124.69Z"/><path class="cls-1" d="M186.73,44.71V69.66h-31.5V44.71Zm0,30.87v80.3h-31.5V75.58Z"/><path class="cls-1" d="M325,155.88H294.42V105.66c0-3.37-.48-5.72-1.46-7.07s-2.69-2-5.17-2q-8.84,0-8.84,12.87v46.43H248.71V105.66q0-9.63-7.42-9.63-7.66,0-7.66,9.63v50.22H203.31V75.58h28.27V86.39q7.57-12.47,22-12.47,15.56,0,22.59,12.47,7.81-12.47,24-12.47a27.77,27.77,0,0,1,13.62,3.24,20.25,20.25,0,0,1,8.53,8.33Q325,90.57,325,101.24Z"/><path class="cls-1" d="M374.41,181.22H342.9V75.58h29V87q6.08-13,22.66-13,14.37,0,22.5,11.17t8.14,30.44q0,19.26-8.33,30.63t-22,11.37q-13.42,0-20.45-10.26Zm0-54.72q0,5.37,2.44,8.33a7.57,7.57,0,0,0,6.08,3,7.78,7.78,0,0,0,7.82-5.25q2.13-5.25,2.13-16.14,0-12.56-2.44-17.65t-7.35-5.09a9.27,9.27,0,0,0-5.8,2.29q-2.88,2.3-2.88,7.5Z"/><path class="cls-1" d="M468.76,48.1V155.88h-31V48.1Z"/><path class="cls-1" d="M538.4,127.06l29.37,2q-2.61,11.85-13.3,20.17t-28.94,8.33q-20.29,0-32.37-11.72t-12.08-29.1q0-18,11.92-30.39t31.82-12.4q19.26,0,31.15,11.69t11.88,31.81c0,1.11,0,2.64-.08,4.58H514q.16,7.59,2.69,11.25t9.63,3.68Q536.58,136.93,538.4,127.06Zm-2.13-20.85c-.06-5.42-1.14-9.06-3.27-10.93a11.53,11.53,0,0,0-7.91-2.81q-11.16,0-11.17,13.74Z"/><path class="cls-1" d="M638.91,156.43a56.06,56.06,0,0,1-10.9,1.1q-23.28,0-37.42-15.39t-14.13-39.88q0-24.39,13.69-40.1t38-15.72q22.5,0,36.68,14.85T679,100.92q0,30.09-19.35,45.88,1.59,4.65,10,4.65a46.76,46.76,0,0,0,8.93-1v24.4q-8.77.85-13.74.86A33.05,33.05,0,0,1,649.13,172Q642.23,168.36,638.91,156.43ZM627.7,133.06q8.37,0,12-7.31T643.41,99q0-28.11-15.08-28.11-16.26,0-16.27,32.06Q612.06,133.06,627.7,133.06Z"/><path class="cls-1" d="M788.93,155.88H752.25l-15.74-41.22H726.08v41.22H693V48.1h56.29q18.63,0,28.94,8.73t10.3,23a34.55,34.55,0,0,1-3.79,16.46q-3.78,7.15-15.32,12.6ZM726.08,91.61h14.13q6.24,0,10-2.61A8.72,8.72,0,0,0,754,81.34Q754,71,741.32,71H726.08Z"/></svg>